<?xml version="1.0" encoding="UTF-8" standalone="no"?>
<!DOCTYPE svg PUBLIC "-//W3C//DTD SVG 1.1//EN" "http://www.w3.org/Graphics/SVG/1.1/DTD/svg11.dtd">
<svg xmlns="http://www.w3.org/2000/svg" version="1.1" viewBox="0 0 437 440">
<g stroke-width="2.00" fill="none" stroke-linecap="butt">
<path stroke="#ffaf80" vector-effect="non-scaling-stroke" d="
  M 311.96 415.00
  L 311.99 426.50
  A 1.00 1.00 0.0 0 0 312.99 427.50
  L 423.50 427.50
  A 1.00 1.00 0.0 0 0 424.50 426.50
  L 424.50 315.93
  A 1.00 1.00 0.0 0 0 423.52 314.93
  L 411.96 314.75"
/>
<path stroke="#ffaf80" vector-effect="non-scaling-stroke" d="
  M 125.04 25.00
  L 125.01 13.50
  A 1.00 1.00 0.0 0 0 124.01 12.50
  L 13.50 12.50
  A 1.00 1.00 0.0 0 0 12.50 13.50
  L 12.50 124.01
  A 1.00 1.00 0.0 0 0 13.50 125.01
  L 25.00 125.04"
/>
</g>
<path fill="#ffffff" d="
  M 0.00 0.00
  L 223.06 0.00
  C 283.52 2.19 337.04 25.53 378.71 68.65
  Q 386.01 76.20 393.27 83.77
  A 1.01 1.00 44.8 0 1 393.28 85.15
  L 303.23 180.36
  A 1.01 1.00 -43.7 0 1 301.75 180.33
  Q 295.26 172.98 288.71 165.66
  Q 279.89 155.79 274.64 151.49
  C 240.30 123.33 188.29 124.69 155.64 154.97
  C 97.88 208.55 139.00 308.35 216.76 308.75
  Q 232.26 308.82 304.75 308.71
  A 1.00 0.99 0.0 0 0 305.75 307.72
  L 305.75 193.73
  A 1.01 1.00 -2.2 0 1 306.68 192.73
  Q 310.45 192.45 314.22 192.55
  C 355.04 193.56 396.14 192.75 437.00 192.78
  L 437.00 440.00
  L 212.19 440.00
  C 92.14 436.16 3.91 340.86 0.00 222.44
  L 0.00 0.00
  Z
  M 25.00 125.04
  Q 24.96 168.87 25.04 212.68
  Q 25.06 225.86 25.58 232.68
  C 32.89 329.63 107.41 408.66 205.52 414.62
  Q 211.59 414.99 225.51 415.00
  Q 268.73 415.00 311.96 415.00
  L 311.99 426.50
  A 1.00 1.00 0.0 0 0 312.99 427.50
  L 423.50 427.50
  A 1.00 1.00 0.0 0 0 424.50 426.50
  L 424.50 315.93
  A 1.00 1.00 0.0 0 0 423.52 314.93
  L 411.96 314.75
  L 411.99 218.50
  A 1.00 1.00 0.0 0 0 410.99 217.50
  L 331.75 217.50
  A 1.00 1.00 0.0 0 0 330.75 218.50
  L 330.75 332.71
  A 1.00 1.00 0.0 0 1 329.75 333.71
  Q 276.41 333.81 223.08 333.72
  Q 209.82 333.70 203.11 332.83
  C 109.17 320.67 68.16 199.37 140.34 135.13
  C 177.49 102.07 233.60 96.93 276.29 122.25
  Q 290.80 130.85 302.31 143.39
  A 1.00 0.99 -44.4 0 0 303.77 143.40
  L 358.85 85.19
  A 1.00 1.00 0.0 0 0 358.83 83.79
  Q 304.84 30.46 229.74 25.43
  Q 222.95 24.98 209.75 24.99
  Q 167.40 25.01 125.04 25.00
  L 125.01 13.50
  A 1.00 1.00 0.0 0 0 124.01 12.50
  L 13.50 12.50
  A 1.00 1.00 0.0 0 0 12.50 13.50
  L 12.50 124.01
  A 1.00 1.00 0.0 0 0 13.50 125.01
  L 25.00 125.04
  Z"
/>
<path fill="#ff5f00" d="
  M 125.04 25.00
  L 124.95 36.51
  A 1.00 1.00 0.0 0 1 123.95 37.50
  L 38.50 37.50
  A 1.00 1.00 0.0 0 0 37.50 38.50
  L 37.50 124.01
  A 1.00 1.00 0.0 0 1 36.50 125.01
  L 25.00 125.04
  L 13.50 125.01
  A 1.00 1.00 0.0 0 1 12.50 124.01
  L 12.50 13.50
  A 1.00 1.00 0.0 0 1 13.50 12.50
  L 124.01 12.50
  A 1.00 1.00 0.0 0 1 125.01 13.50
  L 125.04 25.00
  Z"
/>
<path fill="#ff5f00" d="
  M 411.96 314.75
  L 423.52 314.93
  A 1.00 1.00 0.0 0 1 424.50 315.93
  L 424.50 426.50
  A 1.00 1.00 0.0 0 1 423.50 427.50
  L 312.99 427.50
  A 1.00 1.00 0.0 0 1 311.99 426.50
  L 311.96 415.00
  L 312.14 403.48
  A 1.00 1.00 0.0 0 1 313.14 402.50
  L 398.50 402.50
  A 1.00 1.00 0.0 0 0 399.50 401.50
  L 399.50 316.06
  A 1.00 0.99 89.4 0 1 400.47 315.06
  L 411.96 314.75
  Z"
/>
</svg>
